HIERARCHY
ROOT Hips
{
 OFFSET 0.000000 0.000000 0.000000
 CHANNELS 6 Xposition Yposition Zposition Yrotation Xrotation Zrotation
 JOINT Chest
 {
  OFFSET 0.000000 9.857222 0.000240
  CHANNELS 3 Yrotation Xrotation Zrotation
  JOINT Chest2
  {
   OFFSET 0.000000 10.876940 -0.000436
   CHANNELS 3 Yrotation Xrotation Zrotation
   JOINT Chest3
   {
    OFFSET 0.000000 9.827798 0.000000
    CHANNELS 3 Yrotation Xrotation Zrotation
    JOINT Chest4
    {
     OFFSET 0.000000 9.827798 0.000000
     CHANNELS 3 Yrotation Xrotation Zrotation
     JOINT Neck
     {
      OFFSET 0.000000 13.831992 0.000000
      CHANNELS 3 Yrotation Xrotation Zrotation
      JOINT Head
      {
       OFFSET 0.000000 9.147643 -0.001036
       CHANNELS 3 Yrotation Xrotation Zrotation
       End Site
       {
        OFFSET 0.000000 17.515799 -0.000541
       }
      }
     }
     JOINT RightCollar
     {
      OFFSET -3.001579 7.717577 0.000000
      CHANNELS 3 Yrotation Xrotation Zrotation
      JOINT RightShoulder
      {
       OFFSET -14.002642 0.000000 0.000000
       CHANNELS 3 Yrotation Xrotation Zrotation
       JOINT RightElbow
       {
        OFFSET -30.053852 0.000000 0.000000
        CHANNELS 3 Yrotation Xrotation Zrotation
        JOINT RightWrist
        {
         OFFSET -24.564923 0.000000 -0.000000
         CHANNELS 3 Yrotation Xrotation Zrotation
         End Site
         {
          OFFSET -18.334355 0.000000 0.000000
         }
        }
       }
      }
     }
     JOINT LeftCollar
     {
      OFFSET 3.001579 7.717577 0.000000
      CHANNELS 3 Yrotation Xrotation Zrotation
      JOINT LeftShoulder
      {
       OFFSET 14.002642 0.000000 0.000000
       CHANNELS 3 Yrotation Xrotation Zrotation
       JOINT LeftElbow
       {
        OFFSET 30.053852 0.000000 0.000000
        CHANNELS 3 Yrotation Xrotation Zrotation
        JOINT LeftWrist
        {
         OFFSET 24.564923 0.000000 -0.000000
         CHANNELS 3 Yrotation Xrotation Zrotation
         End Site
         {
          OFFSET 18.334355 0.000000 0.000000
         }
        }
       }
      }
     }
    }
   }
  }
 }
 JOINT RightHip
 {
  OFFSET -8.003235 -0.001175 -0.000120
  CHANNELS 3 Yrotation Xrotation Zrotation
  JOINT RightKnee
  {
   OFFSET 0.000000 -41.759727 0.000113
   CHANNELS 3 Yrotation Xrotation Zrotation
   JOINT RightAnkle
   {
    OFFSET 0.000000 -40.728748 0.000159
    CHANNELS 3 Yrotation Xrotation Zrotation
    JOINT RightToe
    {
     OFFSET 0.000000 -6.515296 14.732841
     CHANNELS 3 Yrotation Xrotation Zrotation
     End Site
     {
      OFFSET 0.000000 -1.502839 6.412115
     }
    }
   }
  }
 }
 JOINT LeftHip
 {
  OFFSET 8.003235 -0.001175 -0.000120
  CHANNELS 3 Yrotation Xrotation Zrotation
  JOINT LeftKnee
  {
   OFFSET 0.000000 -41.759727 0.000113
   CHANNELS 3 Yrotation Xrotation Zrotation
   JOINT LeftAnkle
   {
    OFFSET 0.000000 -40.728748 0.000159
    CHANNELS 3 Yrotation Xrotation Zrotation
    JOINT LeftToe
    {
     OFFSET 0.000000 -6.515296 14.732841
     CHANNELS 3 Yrotation Xrotation Zrotation
     End Site
     {
      OFFSET 0.000000 -1.502839 6.412115
     }
    }
   }
  }
 }
}
MOTION
Frames: 13
Frame Time: 0.016667
28.031960 62.227092 -8.970133 -37.439891 49.376179 -5.964788 6.478191 4.817040 -5.855633 1.966782 0.865480 -2.129168 1.966782 0.865480 -2.129168 1.478095 0.642275 -1.599651 -3.803092 3.357154 5.569179 -11.237450 -29.159338 13.835924 7.351723 4.408021 5.307652 57.148113 20.075882 -44.655537 5.755137 -11.609823 -12.137054 -2.720928 1.645515 -12.556825 -19.149185 7.919431 18.901286 -49.665632 0.778716 37.566536 -18.278807 -15.228025 20.606221 2.553133 1.668381 8.718673 -154.071280 -58.952251 154.971915 -49.264341 74.485667 -61.451814 -3.850535 -12.791638 -0.202073 4.089966 -0.872859 1.902524 -156.452339 -48.586905 -172.832763 -148.348763 73.174635 -163.162639 -2.315974 -17.306727 3.329924 -1.382803 1.323732 -0.659802
27.603201 62.873554 -8.690766 -36.729102 49.338516 -5.818951 6.068729 4.838795 -5.526165 1.956107 0.863331 -2.130881 1.956107 0.863331 -2.130881 1.470084 0.640695 -1.600914 -3.774729 3.307897 5.558875 -11.184777 -29.256428 13.809675 7.222661 4.349800 5.271179 57.439793 19.847838 -44.898919 5.627217 -11.489912 -12.115440 -2.882148 1.462710 -11.907320 -19.271547 7.946366 18.783876 -49.546840 0.849346 37.801922 -18.589652 -15.083906 20.841200 2.473532 1.713572 8.652272 -152.894575 -59.643530 153.185585 -48.020678 74.131398 -59.929747 -3.752138 -13.127775 -0.295791 4.089813 -0.975855 1.822901 -156.580572 -49.449949 -173.370122 -149.435282 73.890564 -163.953231 -2.732865 -17.537540 3.141673 -1.556851 1.240443 -0.688497
27.120452 63.640496 -8.341601 -36.147513 49.307475 -5.757118 5.755446 4.767144 -5.222243 1.950295 0.840471 -2.134862 1.950295 0.840471 -2.134862 1.465652 0.623557 -1.603820 -3.751090 3.288016 5.548499 -11.134776 -29.298705 13.779101 7.160813 4.308303 5.314184 57.492157 19.919885 -44.891416 5.532673 -11.493785 -12.178827 -2.927788 1.494447 -11.479815 -19.161770 7.987095 18.756602 -49.634526 1.103252 37.807388 -18.988100 -15.087300 21.358243 2.368885 1.722354 8.611719 -151.294942 -60.454286 151.125126 -46.492603 73.534305 -58.214476 -3.542200 -13.395607 -0.277338 4.010519 -1.106966 1.709627 -156.311054 -50.509259 -174.106516 -150.761334 74.725789 -165.083622 -3.535408 -17.836880 2.832768 -1.539756 1.142341 -0.626888
26.596103 64.532625 -7.935936 -35.686453 49.483849 -5.750890 5.468099 4.400277 -4.985820 1.958779 0.803271 -2.147576 1.958779 0.803271 -2.147576 1.471905 0.595586 -1.613250 -3.732917 3.310458 5.544086 -11.089512 -29.261236 13.754092 7.217267 4.263535 5.473616 57.063414 20.290908 -44.712802 5.672473 -11.770145 -12.422046 -2.937860 1.741129 -11.373939 -19.027898 8.102313 18.754229 -49.643788 1.277730 37.781424 -19.516153 -14.972097 21.841240 2.327719 1.588179 8.540808 -149.596017 -61.213329 149.080441 -44.726733 72.740578 -56.295865 -3.205119 -13.542179 -0.126936 3.771506 -1.296772 1.526404 -155.992487 -51.555877 -174.766242 -152.294154 75.660372 -166.430484 -4.502114 -18.156568 2.400568 -1.345715 0.983230 -0.480424
26.050074 65.477403 -7.426119 -35.269155 49.359224 -5.714311 5.213116 4.195787 -4.772110 1.972380 0.790458 -2.151944 1.972380 0.790458 -2.151944 1.482067 0.585914 -1.616504 -3.713842 3.359414 5.522318 -11.026066 -29.177995 13.686722 7.243183 4.338437 5.595304 56.569366 20.678495 -44.343012 5.894550 -11.938241 -12.743254 -2.920791 1.871965 -11.529672 -18.951063 8.297021 18.705249 -49.534514 1.302577 37.782555 -20.100755 -14.828881 22.158731 2.312545 1.451041 8.425357 -147.489183 -62.379865 146.642187 -42.954642 71.813390 -54.338203 -2.896066 -13.744251 0.101810 3.580178 -1.421184 1.376129 -155.386723 -53.035488 -175.656403 -152.861925 76.571004 -166.961270 -5.203478 -18.617685 2.071476 -1.273410 0.854629 -0.402718
25.520876 66.476463 -6.828887 -34.903962 49.115849 -5.654705 4.971926 4.040976 -4.593071 1.977700 0.788721 -2.152870 1.977700 0.788721 -2.152870 1.486052 0.584590 -1.617200 -3.687927 3.419390 5.485790 -10.937521 -29.077978 13.582594 7.240780 4.534255 5.674519 56.407128 21.017952 -43.724475 5.964977 -11.792240 -13.124602 -2.878201 1.920225 -11.602158 -18.857936 8.466031 18.623150 -49.440986 1.256361 37.774954 -20.664454 -14.752055 22.310963 2.344865 1.326662 8.251287 -145.023372 -63.759188 143.839956 -41.119189 70.739367 -52.276850 -2.563402 -13.976298 0.398865 3.382343 -1.469776 1.233247 -154.493932 -54.752475 -176.795450 -152.319854 77.455212 -166.600420 -5.597008 -19.164672 1.852583 -1.273787 0.714004 -0.375387
25.039650 67.534392 -6.180494 -34.497152 48.789549 -5.535403 4.779700 3.944014 -4.476976 1.970862 0.782991 -2.171144 1.970862 0.782991 -2.171144 1.480927 0.580258 -1.630878 -3.691199 3.495805 5.478649 -10.922445 -28.938036 13.552342 7.186505 4.799721 5.880584 56.364165 21.342258 -43.178171 6.006003 -11.536404 -13.357004 -2.801021 1.884915 -11.449979 -18.863729 8.646772 18.616806 -49.345973 1.332304 37.674263 -21.098017 -14.795430 22.436161 2.421636 1.167073 8.143211 -141.849773 -65.237604 140.412205 -39.349297 69.274185 -50.424497 -2.318112 -14.173117 0.796725 3.305090 -1.414420 1.160834 -153.483242 -56.642036 -178.184235 -150.404146 78.375799 -164.968656 -5.535891 -19.762382 1.724210 -1.412084 0.595248 -0.428078
24.629397 68.662660 -5.515866 -33.893270 48.540060 -5.285183 4.460355 3.780203 -4.361900 1.954245 0.777965 -2.198742 1.954245 0.777965 -2.198742 1.468483 0.576459 -1.651539 -3.704105 3.573591 5.488061 -10.936508 -28.791284 13.561452 7.154104 4.944232 6.138082 56.275836 21.682368 -42.725390 6.188608 -11.393086 -13.391748 -2.692203 1.802458 -11.062498 -18.841882 8.897109 18.625988 -49.294479 1.406867 37.687420 -21.450163 -14.999660 22.468732 2.423971 1.076713 8.089368 -138.269069 -66.618354 136.445590 -37.574509 67.580728 -48.654201 -1.871191 -14.297894 1.304762 3.116552 -1.312709 1.052877 -152.526570 -58.539551 -179.754205 -147.626831 79.448067 -162.524383 -5.419248 -20.266635 1.681376 -1.553409 0.459386 -0.494555
24.220029 69.807632 -4.823146 -33.114124 48.038984 -5.003467 4.013041 3.847957 -4.119113 1.943224 0.770643 -2.231832 1.943224 0.770643 -2.231832 1.460234 0.570902 -1.676319 -3.718263 3.663471 5.503227 -10.953689 -28.621142 13.580336 7.217370 4.991659 6.424711 56.323600 21.970687 -42.200296 6.359974 -11.174607 -13.306492 -2.536826 1.754803 -10.740517 -18.797228 9.202559 18.608565 -49.365188 1.373224 37.751893 -21.672771 -15.176347 22.244924 2.370157 1.205156 7.990310 -133.437048 -68.017456 131.165693 -35.655888 65.834141 -46.836476 -1.801301 -14.386074 1.853375 3.052541 -1.182860 1.011321 -151.012886 -60.673310 177.910622 -144.121905 80.664083 -159.377050 -5.287791 -20.816973 1.639540 -1.731043 0.434698 -0.590486
23.768050 70.970326 -4.111884 -32.147589 47.156818 -4.701239 3.491320 4.123278 -3.718795 1.939882 0.795190 -2.260009 1.939882 0.795190 -2.260009 1.457853 0.589236 -1.697524 -3.753184 3.790984 5.512937 -11.001612 -28.379203 13.591479 7.241589 5.072666 6.673777 56.750028 22.107696 -41.534386 6.441442 -10.841054 -13.163190 -2.317138 1.820653 -10.683305 -18.734231 9.503307 18.565092 -49.599537 1.287310 37.808281 -21.629209 -14.969356 21.733397 2.307243 1.215550 7.744754 -126.656234 -69.311213 123.838320 -33.461981 64.053669 -44.858373 -2.032011 -14.431559 2.298583 3.223627 -1.051395 1.082919 -148.635106 -63.116468 174.493589 -139.820806 82.041383 -155.369186 -5.165462 -21.412994 1.518022 -1.925393 0.528169 -0.705350
23.307837 72.172561 -3.392190 -31.317964 46.294421 -4.436756 3.009558 4.328340 -3.336828 1.916104 0.867741 -2.269684 1.916104 0.867741 -2.269684 1.440297 0.643708 -1.704971 -3.764323 3.887268 5.487425 -10.987867 -28.204385 13.523969 7.372074 5.015664 6.783311 57.425235 22.099137 -40.776498 6.486615 -10.425360 -13.028855 -2.161751 1.951674 -10.776668 -18.526440 9.573793 18.468558 -49.948450 1.332811 37.917183 -21.289765 -14.628953 20.926831 2.243680 1.314346 7.524166 -119.005181 -70.218327 115.717218 -31.368448 62.177945 -42.993779 -2.116715 -14.316037 2.693586 3.297508 -1.027871 1.118488 -145.735932 -65.552116 170.643505 -134.917265 83.584260 -150.611220 -5.477492 -21.898824 1.249789 -1.842351 0.583230 -0.702359
22.825087 73.389503 -2.673810 -30.521633 45.409374 -4.321245 2.601738 4.495952 -2.828809 1.899008 0.963304 -2.278733 1.899008 0.963304 -2.278733 1.427838 0.715418 -1.712023 -3.805970 3.978152 5.439445 -11.025027 -28.038064 13.429385 7.452896 4.880064 6.903290 58.198026 22.071789 -40.019818 6.479976 -9.951615 -12.806804 -2.066000 1.924827 -10.928077 -18.456836 9.598712 18.318246 -50.364139 1.374758 38.012068 -20.688967 -13.881989 19.972114 2.180220 1.433861 7.331553 -110.629798 -70.532231 106.799174 -29.442918 60.260577 -41.274307 -1.990025 -13.979125 3.016930 3.292256 -1.200923 1.125263 -141.919895 -67.878028 165.940294 -124.418263 85.074614 -140.008328 -6.173702 -22.271333 0.703222 -1.150824 0.663497 -0.426184
22.393053 74.563599 -1.893119 -29.773894 44.282076 -3.967696 2.216224 4.853374 -2.536620 1.870816 1.029589 -2.262889 1.870816 1.029589 -2.262889 1.406910 0.765286 -1.700292 -3.833125 4.103226 5.329024 -10.989727 -27.821245 13.191714 7.463009 4.926390 6.887663 59.205012 21.874915 -39.376084 6.405303 -9.367815 -12.424231 -1.990999 1.859623 -10.891900 -18.480568 9.784859 17.939958 -50.782179 1.282894 38.096370 -20.054331 -12.862364 19.055730 2.133526 1.440442 7.188843 -101.697906 -70.608609 97.282472 -27.663541 58.310257 -39.696260 -2.019794 -13.724001 3.268344 3.435378 -1.260040 1.201220 -137.295145 -70.399898 160.280931 -107.957557 86.340834 -123.582892 -6.190727 -22.661946 0.455947 -1.208302 0.676563 -0.485415
